<?xml version="1.0" standalone="no"?>
<!DOCTYPE svg PUBLIC "-//W3C//DTD SVG 20010904//EN"
 "http://www.w3.org/TR/2001/REC-SVG-20010904/DTD/svg10.dtd">
<svg version="1.0" xmlns="http://www.w3.org/2000/svg"
 width="666.000000pt" height="375.000000pt" viewBox="0 0 666.000000 375.000000"
 preserveAspectRatio="xMidYMid meet">

<g transform="translate(0.000000,375.000000) scale(0.100000,-0.100000)"
fill="#000000" stroke="none">
<path d="M4580 2748 c-109 -59 -299 -243 -458 -444 -137 -174 -152 -194 -152
-200 0 -4 -12 -23 -27 -43 -111 -144 -253 -420 -273 -529 -14 -79 1 -112 51
-112 44 0 158 71 274 171 192 166 197 170 225 164 33 -7 89 14 119 44 30 30
16 46 -18 21 -45 -31 -81 -43 -81 -25 0 22 119 144 120 123 0 -23 13 -23 33 0
25 27 22 52 -6 52 -35 0 -108 -52 -147 -105 -43 -59 -88 -104 -174 -175 -37
-30 -86 -72 -109 -92 -22 -21 -44 -38 -48 -38 -4 0 -27 -16 -51 -37 -53 -45
-122 -76 -148 -68 -34 11 -25 55 45 224 41 98 127 238 301 491 118 171 380
444 529 550 6 4 22 10 38 14 26 6 27 5 27 -36 0 -50 -80 -217 -145 -308 -22
-30 -53 -73 -67 -95 -29 -43 -102 -106 -92 -80 4 9 0 15 -9 15 -16 0 -37 -47
-30 -67 8 -24 30 -13 89 46 142 141 284 394 284 507 0 27 -20 64 -35 64 -2 0
-31 -15 -65 -32z"/>
<path d="M1585 2518 c-134 -25 -464 -112 -580 -153 -157 -56 -303 -125 -367
-173 -71 -53 -65 -65 30 -57 85 7 222 33 243 46 31 19 -7 21 -113 6 -61 -9
-113 -15 -115 -14 -4 4 92 67 101 67 4 0 53 20 109 44 56 25 116 48 132 51 17
4 80 22 140 41 160 50 165 51 340 84 189 36 346 48 426 31 31 -7 80 -26 110
-44 46 -28 55 -39 72 -86 17 -52 17 -58 2 -123 -24 -95 -105 -208 -246 -341
-108 -102 -113 -106 -198 -132 -47 -15 -137 -47 -199 -71 -61 -24 -117 -44
-122 -44 -5 0 -53 -20 -106 -45 -52 -25 -98 -45 -100 -45 -11 0 -290 -143
-305 -156 -9 -8 -31 -22 -50 -32 -119 -60 -351 -261 -364 -315 -11 -41 10 -60
54 -52 52 10 194 70 285 121 43 24 81 44 84 44 3 0 38 20 78 45 39 25 75 45
78 45 4 0 33 17 64 37 31 21 80 51 109 68 90 51 197 121 247 159 26 20 53 36
61 36 7 0 19 8 26 17 8 9 45 36 82 61 38 24 83 57 102 73 18 16 59 41 91 55
33 14 77 35 99 46 51 25 257 100 262 95 2 -2 -24 -14 -57 -26 -77 -28 -170
-103 -231 -185 -22 -30 -26 -42 -18 -52 6 -8 18 -14 26 -14 21 0 90 37 153 82
52 37 55 38 62 18 17 -46 51 -37 190 52 43 28 81 48 84 45 3 -3 -4 -19 -16
-35 -45 -60 8 -70 87 -17 61 41 63 41 63 16 0 -31 15 -33 54 -6 42 29 56 31
56 10 0 -20 13 -19 60 5 24 12 41 16 45 10 10 -15 58 -12 84 6 17 12 26 13 34
5 6 -6 19 -11 28 -11 13 0 17 8 17 30 -1 40 -11 44 -48 25 -16 -8 -41 -20 -56
-25 -23 -9 -25 -8 -19 10 8 26 -5 25 -65 -5 -48 -25 -50 -25 -50 -5 0 25 -16
25 -58 0 -40 -25 -42 -25 -42 0 0 30 -30 25 -88 -14 l-50 -34 5 33 c3 18 1 35
-5 39 -15 9 -72 -14 -131 -53 -97 -65 -141 -85 -141 -63 0 4 18 27 40 50 40
42 51 72 26 72 -7 0 -44 -27 -81 -60 -37 -33 -71 -60 -76 -60 -4 0 -35 -18
-69 -41 -34 -22 -64 -38 -67 -35 -3 3 27 37 68 77 70 67 171 129 211 129 20 0
28 20 16 43 -18 35 -85 21 -251 -52 -27 -11 -51 -21 -55 -21 -3 0 26 33 64 74
121 130 158 185 194 291 25 72 25 118 1 170 -24 52 -61 88 -124 120 -49 24
-58 25 -216 24 -92 -1 -188 -5 -216 -11z m29 -820 c-15 -13 -42 -32 -59 -43
-18 -11 -78 -51 -134 -90 -56 -38 -119 -79 -139 -90 -20 -11 -65 -40 -99 -63
-35 -23 -71 -46 -82 -50 -10 -4 -49 -26 -87 -50 -107 -68 -234 -141 -256 -147
-10 -4 -47 -23 -81 -42 -65 -37 -200 -87 -219 -81 -25 9 128 159 232 228 21
14 63 42 94 63 31 20 58 37 61 37 3 0 33 17 67 38 113 69 443 215 593 262 39
12 81 28 95 36 39 20 46 16 14 -8z"/>
<path d="M5293 2198 c-31 -29 -85 -86 -120 -127 -66 -77 -120 -116 -176 -126
-24 -5 -37 -2 -46 9 -19 23 -53 20 -92 -9 -19 -13 -53 -34 -76 -47 -35 -18
-46 -20 -68 -10 -36 17 -31 37 15 56 41 16 51 32 25 42 -14 6 -33 -5 -159 -89
-62 -41 -133 -71 -140 -58 -3 4 7 24 21 45 19 25 23 40 16 47 -7 7 -24 -3 -57
-34 -48 -47 -56 -60 -32 -51 10 4 16 -2 18 -18 6 -45 53 -34 193 48 40 23 41
23 53 3 11 -17 9 -20 -12 -29 -31 -11 -39 -25 -31 -50 13 -40 100 -15 123 34
6 14 16 26 22 26 6 0 8 -5 5 -10 -11 -18 5 -48 28 -54 24 -6 85 29 128 75 21
23 129 76 129 64 0 -2 -9 -24 -20 -49 -36 -84 1 -106 96 -58 29 14 33 14 49
-1 20 -21 15 -22 71 8 47 25 47 25 61 5 18 -26 34 -25 105 6 52 24 63 26 97
15 51 -15 90 -14 140 4 23 8 41 10 41 4 0 -23 142 -48 435 -74 99 -9 215 -25
257 -36 92 -23 88 -23 88 -5 0 32 -102 55 -342 76 -128 11 -271 26 -318 33
-76 11 -85 14 -88 35 -4 27 -21 28 -72 2 -46 -23 -97 -25 -124 -5 -28 21 -47
19 -111 -15 -81 -43 -92 -40 -59 15 21 37 24 48 14 60 -7 8 -20 15 -30 15 -32
0 -100 -29 -127 -55 -36 -33 -120 -75 -151 -75 l-23 0 26 48 c32 58 60 90 116
134 106 82 196 186 185 213 -9 25 -24 18 -83 -37z m17 -32 c0 -2 -8 -10 -17
-17 -16 -13 -17 -12 -4 4 13 16 21 21 21 13z m-380 -236 c0 -5 -4 -10 -9 -10
-6 0 -13 5 -16 10 -3 6 1 10 9 10 9 0 16 -4 16 -10z m410 0 c0 -11 -109 -84
-116 -78 -6 7 48 55 81 72 36 19 35 19 35 6z m-452 -33 c14 -16 5 -29 -35 -52
-44 -26 -51 -14 -16 29 31 40 36 42 51 23z m-192 -72 c-11 -8 -25 -15 -30 -15
-6 0 -2 7 8 15 11 8 25 15 30 15 6 0 2 -7 -8 -15z"/>
<path d="M1335 2198 c-4 -13 -29 -68 -56 -123 -60 -125 -159 -341 -159 -349 0
-3 -12 -31 -26 -62 -15 -34 -22 -60 -17 -65 17 -17 40 1 41 30 0 16 26 80 56
144 31 64 56 119 56 122 0 3 22 52 49 108 100 209 103 217 77 217 -8 0 -18
-10 -21 -22z"/>
<path d="M5841 2171 c-18 -12 -5 -31 20 -31 14 0 19 6 17 17 -4 20 -18 26 -37
14z"/>
<path d="M2990 2070 c0 -19 20 -27 33 -13 8 7 -11 33 -24 33 -5 0 -9 -9 -9
-20z"/>
<path d="M3598 1974 c-3 -3 -28 -11 -55 -18 -27 -7 -69 -27 -93 -45 -47 -34
-70 -39 -70 -16 0 24 -25 28 -58 11 -31 -16 -31 -16 -29 12 3 45 -33 41 -89
-12 -57 -54 -71 -58 -48 -14 15 30 15 32 -2 45 -27 20 -57 9 -132 -47 -36 -28
-69 -50 -73 -50 -5 0 -9 -7 -9 -15 0 -18 5 -18 30 -5 13 7 21 6 30 -5 14 -17
45 -12 73 13 13 12 20 13 29 4 19 -19 42 -14 84 16 60 43 63 44 57 22 -7 -25
24 -27 66 -5 26 13 30 13 42 -1 18 -22 72 -12 114 21 42 31 60 33 45 5 -15
-28 -5 -40 34 -40 26 0 44 10 75 40 22 22 41 44 41 49 0 24 -47 51 -62 35z
m-11 -71 c-21 -19 -42 -32 -45 -28 -4 4 10 22 31 42 21 19 42 32 45 28 4 -4
-10 -22 -31 -42z m-496 -27 c-13 -13 -32 -26 -43 -29 -23 -7 -20 -3 24 29 42
30 47 30 19 0z"/>
</g>
</svg>
